<svg viewBox="0 0 64 64" xmlns="http://www.w3.org/2000/svg"><g id="Flat"><path d="m53 24.267c0 18.366-21 36.733-21 36.733s-21-18.367-21-36.733a21 21 0 1 1 42 0z" fill="#fa4b4b"/><path d="m19.625 46.953a86.778 86.778 0 0 0 12.375 14.047s17.6-15.4 20.567-32.1c-8.144 9.04-20.061 15.6-32.942 18.053z" fill="#dc3c46"/><circle cx="32" cy="24" fill="#eee" r="17"/><path d="m39.36 13.8a4.716 4.716 0 0 0 -6.005.619 4.873 4.873 0 0 0 -.61 6.08l-4.181 4.244a4.734 4.734 0 0 0 -6.014.609 4.86 4.86 0 0 0 -.6 6.09l3.307-3.35 2.7 2.734-3.307 3.35a4.728 4.728 0 0 0 6.007-.615 4.86 4.86 0 0 0 .607-6.084l4.185-4.238a4.707 4.707 0 0 0 6.007-.615 4.88 4.88 0 0 0 .608-6.084l-3.308 3.35-2.7-2.734 3.307-3.35z" fill="#ad2a37"/></g></svg>