<svg viewBox="0 0 18 16" fill="none" xmlns="http://www.w3.org/2000/svg">
  <path fill-rule="evenodd" clip-rule="evenodd" d="M15.92 1.01C15.72 0.42 15.16 0 14.5 0H3.5C2.84 0 2.29 0.42 2.08 1.01L0 7V15C0 15.55 0.45 16 1 16H2C2.55 16 3 15.55 3 15V14H15V15C15 15.55 15.45 16 16 16H17C17.55 16 18 15.55 18 15V7L15.92 1.01ZM3.85 2H14.14L15.22 5.11H2.77L3.85 2ZM2 12H16V7H2V12ZM4.5 8C3.67157 8 3 8.67157 3 9.5C3 10.3284 3.67157 11 4.5 11C5.32843 11 6 10.3284 6 9.5C6 8.67157 5.32843 8 4.5 8ZM12 9.5C12 8.67157 12.6716 8 13.5 8C14.3284 8 15 8.67157 15 9.5C15 10.3284 14.3284 11 13.5 11C12.6716 11 12 10.3284 12 9.5Z" fill="currentColor"/>
</svg>
