<svg viewBox="0 0 72 76" fill="none" xmlns="http://www.w3.org/2000/svg">
<path d="M15.1672 56.3892H17.6186V58.8405H15.1672V56.3892Z" fill="white"/>
<path d="M69.0004 9.19075L46.7381 0.281165C44.574 -0.521996 42.3027 0.560656 41.5097 2.55479L39.9543 6.43415C39.7729 6.92191 39.6808 7.41446 39.6808 7.90102C39.6808 8.70897 39.9333 9.49238 40.3768 10.1543L36.7931 18.393H35.2095L31.6282 10.1579C32.0741 9.49478 32.3266 8.71017 32.3266 7.90102C32.3266 7.41565 32.2345 6.92191 32.0424 6.40243L30.4995 2.55719C29.7035 0.557064 27.534 -0.565685 25.24 0.290741L3.00947 9.18955C1.46 9.80479 0.45874 11.2818 0.45874 12.951C0.45874 13.4364 0.550906 13.9301 0.743019 14.4502L2.2865 18.2948C2.86822 19.7587 4.22019 20.7205 5.77445 20.8246L16.975 46.5838H13.9413C11.9143 46.5838 10.2642 48.2338 10.2642 50.2609C10.2642 51.255 10.6527 52.179 11.3355 52.8445C11.5636 53.0791 11.8245 53.2629 12.0992 53.4245C10.9914 54.5682 10.3014 56.1212 10.3014 57.8359C10.3014 58.3111 10.3516 58.7635 10.4528 59.216L14.1843 76.0004H52.9048L58.2253 53.8254C63.0167 53.1707 66.6459 49.0843 66.6459 44.1325C66.6459 39.9323 63.9653 36.2552 60.1165 34.8985L66.233 20.8246C67.7872 20.7205 69.1404 19.7587 69.7215 18.2984L71.2764 14.4197C71.4565 13.9301 71.5487 13.4376 71.5487 12.951C71.5487 11.2818 70.5474 9.80479 69.0004 9.19075V9.19075ZM40.3672 16.3264L44.1077 17.904L45.0605 15.6454L41.3452 14.0773L42.3727 11.7181L63.7912 20.2902L62.599 23.0348L47.3377 16.6119L46.388 18.8724L61.6217 25.2827L60.4181 28.0513L45.7919 21.8983C45.7003 19.952 44.1006 18.393 42.1322 18.393H39.4677L40.3672 16.3264ZM27.4472 48.6049C28.8178 46.5719 31.0998 45.3581 33.5523 45.3581C36.0049 45.3581 38.2875 46.5719 39.6574 48.6049C40.475 49.815 40.9065 51.2352 40.9065 52.7123C40.9065 54.1893 40.475 55.6101 39.6574 56.8196C38.2875 58.8533 36.0049 60.0664 33.5523 60.0664C29.4964 60.0664 26.1982 56.7682 26.1982 52.7123C26.1982 51.2352 26.6297 49.815 27.4472 48.6049V48.6049ZM29.8753 42.9068C28.4401 42.9068 27.1701 42.1018 26.5561 40.7947C26.5034 40.6858 26.4789 40.5685 26.437 40.4554H40.6784C40.1745 41.8858 38.8279 42.9068 37.2306 42.9068H29.8753ZM16.8757 40.2076L21.5947 38.226C22.01 39.192 22.8347 39.9311 23.8438 40.2597C23.8671 40.3931 23.8893 40.5278 23.921 40.6589L18.1331 43.0995L16.8757 40.2076ZM42.1322 20.8444C42.8078 20.8444 43.3578 21.395 43.3578 22.0701V28.1985H32.3266C30.2996 28.1985 28.6496 29.8485 28.6496 31.8756C28.6496 32.8696 29.038 33.7937 29.7209 34.4592C30.4085 35.1642 31.3326 35.5526 32.3266 35.5526H43.3578V36.7783C43.3578 37.454 42.8078 38.004 42.1322 38.004H24.9725C24.2974 38.004 23.7468 37.454 23.7468 36.7783V30.5763C23.7468 30.0029 23.8779 29.4415 24.1316 28.9424L27.1582 22.878C27.7806 21.6421 29.0739 20.8444 30.4516 20.8444H42.1322ZM47.3551 46.5838H41.1907C40.6886 45.9578 40.1183 45.4036 39.4911 44.9254C41.171 44.2635 42.4655 42.8822 43.0245 41.1885L47.1169 42.9104C47.0642 43.3137 47.0349 43.7195 47.0349 44.1325C47.0349 44.9709 47.1504 45.7885 47.3551 46.5838V46.5838ZM43.3578 33.1013H32.3266C31.9993 33.1013 31.6976 32.9762 31.4541 32.7266C31.226 32.5046 31.101 32.2029 31.101 31.8756C31.101 31.2005 31.6516 30.6499 32.3266 30.6499H43.3578V33.1013ZM21.9436 27.8394C21.6216 28.4732 21.4157 29.1728 21.3361 29.8928L13.7719 33.0695L12.5684 30.301L22.8826 25.9578L21.9436 27.8394ZM21.2954 32.568V35.6951L15.8989 37.9615L14.7493 35.3174L21.2954 32.568ZM42.6199 49.0352H48.3671C48.9297 50.0024 49.6455 50.8642 50.4941 51.5811L48.6442 56.3893H42.6199C43.0909 55.2289 43.3578 53.9906 43.3578 52.7123C43.3578 51.4339 43.0909 50.1963 42.6199 49.0352ZM47.7483 40.517L44.8104 39.2812C45.4256 38.6228 45.8092 37.7467 45.8092 36.7783V36.2846L49.3893 37.7945C48.6981 38.6061 48.1415 39.523 47.7483 40.517ZM51.4325 35.9955L45.8092 33.6237V30.4979L55.2215 34.4592C53.8546 34.6836 52.5822 35.2229 51.4325 35.9955ZM58.2379 33.0695L45.8092 27.8382V24.5657L59.4414 30.3022L58.2379 33.0695ZM30.4516 18.393C28.1558 18.393 26.0031 19.7204 24.9653 21.7834L24.5632 22.5901L11.5905 28.0513L10.3869 25.2839L31.6414 16.3264L32.5409 18.393H30.4516ZM4.56252 17.3845L3.03041 13.5662C2.95201 13.3556 2.91012 13.1425 2.91012 12.951C2.91012 12.2915 3.30511 11.7092 3.91796 11.4656L26.1222 2.57933C27.0612 2.23102 27.9093 2.67629 28.2229 3.46808L29.755 7.28578C29.8334 7.49645 29.8753 7.71011 29.8753 7.90102C29.8753 8.34629 29.6963 8.76044 29.363 9.07165C29.2283 9.20032 29.0506 9.31344 28.8704 9.38645L25.7326 10.6367L26.6393 12.9133L29.6377 11.7193L30.6695 14.0923L9.40902 23.0372L8.21625 20.2932L24.2017 13.8936L23.2908 11.6188L6.64823 18.2793C6.55187 18.317 6.44774 18.3451 6.40106 18.3565C5.62902 18.463 4.8492 18.1063 4.56252 17.3845ZM19.1104 45.3486L24.9701 42.8774C25.6518 43.8051 26.5657 44.5065 27.619 44.9207C26.99 45.4 26.4178 45.9554 25.9139 46.5838H19.6472L19.1104 45.3486ZM50.9705 73.549H16.1503L12.8443 58.6815C12.7821 58.4044 12.7509 58.1273 12.7509 57.8359C12.7509 55.6873 14.5003 53.938 16.6488 53.938C18.23 53.938 19.6418 54.8782 20.2487 56.3343L25.3807 68.6462H32.5523C33.0598 70.0694 34.4082 71.0976 36.0037 71.0976C38.0308 71.0976 39.6808 69.4482 39.6808 67.4205C39.6808 67.2685 39.6538 67.1231 39.6353 66.9759L43.9061 64.8405L42.809 62.6477L38.5485 64.7782C37.8877 64.1409 36.993 63.7435 36.0037 63.7435C34.4082 63.7435 33.0598 64.7717 32.5523 66.1949H27.0145L22.5128 55.3905C21.5247 53.0187 19.2241 51.4866 16.65 51.4866H13.9413C13.6139 51.4866 13.3123 51.3615 13.0687 51.1119C12.8407 50.8899 12.7156 50.5883 12.7156 50.2609C12.7156 49.5858 13.2662 49.0352 13.9413 49.0352H24.4848C24.0143 50.1963 23.7468 51.4339 23.7468 52.7123C23.7468 58.119 28.1457 62.5178 33.5523 62.5178C36.5453 62.5178 39.3378 61.1503 41.1907 58.8407H50.3284L56.218 43.5244C56.3634 43.1497 56.7141 42.9068 57.1103 42.9068C57.637 42.9068 58.0661 43.3359 58.0661 43.8751C58.0661 43.9194 58.0613 43.9954 58.0392 44.0912L50.9705 73.549ZM34.778 67.4205C34.778 66.7455 35.3286 66.1949 36.0037 66.1949C36.6794 66.1949 37.2294 66.7455 37.2294 67.4205C37.2294 68.0962 36.6794 68.6462 36.0037 68.6462C35.3286 68.6462 34.778 68.0962 34.778 67.4205ZM64.1946 44.1325C64.1946 47.5019 61.9526 50.3321 58.8555 51.1939L60.4253 44.6507C60.487 44.3838 60.5175 44.1229 60.5175 43.8631C60.5175 41.9839 58.989 40.4554 57.1103 40.4554C55.6979 40.4554 54.4519 41.31 53.9306 42.6386L51.4439 49.1076C50.9412 48.5672 50.5109 47.9591 50.1901 47.2864C49.7227 46.2972 49.4863 45.2355 49.4863 44.1325C49.4863 43.5513 49.5551 42.9888 49.6982 42.4046C50.0806 40.7935 51.0064 39.3524 52.3177 38.341C53.611 37.3187 55.1748 36.7783 56.8404 36.7783C57.3396 36.7783 57.7902 36.8226 58.2403 36.916C61.6905 37.5773 64.1946 40.6134 64.1946 44.1325V44.1325ZM68.9896 13.5369L67.4437 17.3893C67.2013 17.9986 66.619 18.393 65.9595 18.393C65.8446 18.393 65.7207 18.372 65.6716 18.3673C65.5603 18.3451 65.4556 18.3158 65.3736 18.2853L43.146 9.38944C42.9581 9.31344 42.7803 9.20032 42.6445 9.07165L42.6385 9.06567C42.3111 8.76044 42.1322 8.34629 42.1322 7.90102C42.1322 7.71011 42.174 7.49645 42.2399 7.31511L43.7858 3.46329C44.0281 2.85403 44.6105 2.45904 45.27 2.45904C45.4609 2.45904 45.6746 2.50093 45.8571 2.56676L68.0937 11.4668C68.7029 11.7092 69.0973 12.2915 69.0973 12.951C69.0973 13.1425 69.0554 13.3556 68.9896 13.5369Z" fill="white"/>
<path d="M36.0033 52.7118C36.0033 53.0697 35.9225 53.4145 35.7544 53.7676L37.9694 54.8191C38.2919 54.1398 38.4547 53.4312 38.4547 52.7118C38.4547 50.0079 36.2559 47.8091 33.552 47.8091C32.8326 47.8091 32.124 47.9725 31.4453 48.2945L32.4968 50.5094C34.1834 49.7063 36.0033 51.002 36.0033 52.7118Z" fill="white"/>
<path d="M33.5519 57.6144C34.2713 57.6144 34.9799 57.4516 35.6592 57.129L34.607 54.914C32.9205 55.716 31.1005 54.4203 31.1005 52.7116C31.1005 52.3537 31.1813 52.0096 31.3495 51.6565L29.1345 50.605C28.812 51.2837 28.6492 51.9923 28.6492 52.7116C28.6492 55.4156 30.848 57.6144 33.5519 57.6144Z" fill="white"/>
<path d="M38.4546 23.2954H40.906V25.7468H38.4546V23.2954Z" fill="white"/>
<path d="M33.5522 23.2954H36.0036V25.7468H33.5522V23.2954Z" fill="white"/>
<path d="M28.6492 23.2954H31.1006V25.7468H28.6492V23.2954Z" fill="white"/>
</svg>
