<svg viewBox="0 0 22 22" xmlns="http://www.w3.org/2000/svg">
  <path fill-rule="evenodd" clip-rule="evenodd" d="M12.5758 8.90959L21.6558 17.9896C22.0558 18.3896 22.0558 19.0196 21.6558 19.3996L19.3558 21.6996C18.9658 22.0896 18.3358 22.0896 17.9458 21.6996L8.83583 12.5896C6.51583 13.4596 3.80583 12.9696 1.94583 11.1096C-0.354171 8.81959 -0.564171 5.22959 1.29583 2.68959L5.12583 6.51959L6.54583 5.10959L2.70583 1.25959C5.25583 -0.60041 8.83583 -0.39041 11.1358 1.90959C13.0258 3.80959 13.5058 6.56959 12.5758 8.90959ZM9.19583 10.1296L18.6558 19.5896L19.5358 18.6996L10.0858 9.24959C10.5458 8.65959 10.8458 7.99959 10.9658 7.28959C11.2158 5.89959 10.8058 4.40959 9.72583 3.32959C8.77583 2.38959 7.52583 1.94959 6.28583 2.01959L9.37583 5.10959L5.13583 9.34959L2.04583 6.25959C1.97583 7.49959 2.41583 8.75959 3.36583 9.69959C4.40583 10.7396 5.83583 11.1496 7.19583 10.9496C7.90583 10.8496 8.58583 10.5796 9.19583 10.1296Z" fill="currentColor"/>
</svg>
